<svg width="48" height="49" viewBox="0 0 48 49" fill="none" xmlns="http://www.w3.org/2000/svg">
<path d="M46.221 9.1132C49.2471 14.8587 47.1253 23.1496 44.6906 30.1677C42.2558 37.2223 39.5427 43.0041 34.8123 45.9859C30.0819 48.9314 23.334 49.0768 16.4123 46.7132C9.49056 44.3496 2.3949 39.4768 0.690556 32.9677C-0.979009 26.4587 2.74273 18.2768 7.9949 12.0223C13.2471 5.73138 20.0297 1.29502 27.5079 0.713202C35.021 0.131384 43.1949 3.36775 46.221 9.1132Z" fill="#1C7EE8" fill-opacity="0.24"/>
<path d="M38.0796 16.6315V32.3685C38.0796 37.0896 35.7329 40.237 30.2574 40.237H17.742C12.2666 40.237 9.91992 37.0896 9.91992 32.3685V16.6315C9.91992 11.9105 12.2666 8.76306 17.742 8.76306H30.2574C35.7329 8.76306 38.0796 11.9105 38.0796 16.6315Z" stroke="#0D58AA" stroke-width="2" stroke-miterlimit="10" stroke-linecap="round" stroke-linejoin="round"/>
<path d="M29.4764 8.76306V21.1323C29.4764 21.8247 28.6628 22.1709 28.1622 21.7145L24.5328 18.3469C24.2356 18.0636 23.7662 18.0636 23.4689 18.3469L19.8395 21.7145C19.3389 22.1709 18.5254 21.8247 18.5254 21.1323V8.76306H29.4764Z" stroke="#0D58AA" stroke-width="2" stroke-miterlimit="10" stroke-linecap="round" stroke-linejoin="round"/>
<path d="M25.9551 27.6475H32.6039" stroke="#0D58AA" stroke-width="2" stroke-miterlimit="10" stroke-linecap="round" stroke-linejoin="round"/>
<path d="M19.3066 33.9423H32.6043" stroke="#0D58AA" stroke-width="2" stroke-miterlimit="10" stroke-linecap="round" stroke-linejoin="round"/>
</svg>
