<svg width="48" height="49" viewBox="0 0 48 49" fill="none" xmlns="http://www.w3.org/2000/svg">
<path d="M46.221 9.1132C49.2471 14.8587 47.1253 23.1496 44.6906 30.1677C42.2558 37.2223 39.5427 43.0041 34.8123 45.9859C30.0819 48.9314 23.334 49.0768 16.4123 46.7132C9.49056 44.3496 2.3949 39.4768 0.690556 32.9677C-0.979009 26.4587 2.74273 18.2768 7.9949 12.0223C13.2471 5.73138 20.0297 1.29502 27.5079 0.713202C35.021 0.131384 43.1949 3.36775 46.221 9.1132Z" fill="#1C7EE8" fill-opacity="0.24"/>
<path d="M21.6386 10.1189L13.8321 13.0775C12.0331 13.7542 10.5625 15.8944 10.5625 17.8143V29.5069C10.5625 31.3638 11.7828 33.8031 13.269 34.9204L19.996 39.9719C22.2018 41.6401 25.8313 41.6401 28.0371 39.9719L34.7642 34.9204C36.2504 33.8031 37.4706 31.3638 37.4706 29.5069V17.8143C37.4706 15.8787 36.0001 13.7384 34.201 13.0617L26.3945 10.1189C25.0647 9.63109 22.9371 9.63109 21.6386 10.1189Z" stroke="#0D58AA" stroke-width="2" stroke-linecap="round" stroke-linejoin="round"/>
<path d="M19.3848 25.2894L21.9035 27.823L28.6305 21.0562" stroke="#0D58AA" stroke-width="2" stroke-linecap="round" stroke-linejoin="round"/>
</svg>
