<svg width="48" height="49" viewBox="0 0 48 49" fill="none" xmlns="http://www.w3.org/2000/svg">
<path d="M46.221 9.1132C49.2471 14.8587 47.1253 23.1496 44.6906 30.1677C42.2558 37.2223 39.5427 43.0041 34.8123 45.9859C30.0819 48.9314 23.334 49.0768 16.4123 46.7132C9.49056 44.3496 2.3949 39.4768 0.690556 32.9677C-0.979009 26.4587 2.74273 18.2768 7.9949 12.0223C13.2471 5.73138 20.0297 1.29502 27.5079 0.713202C35.021 0.131384 43.1949 3.36775 46.221 9.1132Z" fill="#1C7EE8" fill-opacity="0.24"/>
<path d="M34.9508 19.7789C34.9508 22.0608 34.2781 24.1538 33.1204 25.9006C31.4308 28.4185 28.7557 30.1968 25.6425 30.6532C25.1105 30.7476 24.563 30.7948 23.9998 30.7948C23.4366 30.7948 22.8891 30.7476 22.3572 30.6532C19.244 30.1968 16.5688 28.4185 14.8792 25.9006C13.7215 24.1538 13.0488 22.0608 13.0488 19.7789C13.0488 13.6887 17.9455 8.76306 23.9998 8.76306C30.0541 8.76306 34.9508 13.6887 34.9508 19.7789Z" stroke="#0D58AA" stroke-width="2" stroke-linecap="round" stroke-linejoin="round"/>
<path d="M38.4697 34.6818L35.8884 35.2955C35.3095 35.4372 34.8558 35.8778 34.7307 36.4601L34.1831 38.7734C33.8859 40.0324 32.2902 40.4101 31.461 39.4187L23.9987 30.7948L16.5364 39.4344C15.7073 40.4258 14.1116 40.0481 13.8143 38.7891L13.2668 36.4758C13.126 35.8935 12.6723 35.4372 12.1091 35.3113L9.52779 34.6976C8.33883 34.4143 7.91643 32.9193 8.77687 32.0537L14.8781 25.9163C16.5677 28.4342 19.2429 30.2125 22.3561 30.6689C22.888 30.7633 23.4355 30.8105 23.9987 30.8105C24.5619 30.8105 25.1095 30.7633 25.6414 30.6689C28.7546 30.2125 31.4297 28.4342 33.1193 25.9163L39.2206 32.0537C40.081 32.9035 39.6586 34.3986 38.4697 34.6818Z" stroke="#0D58AA" stroke-width="2" stroke-linecap="round" stroke-linejoin="round"/>
<path d="M24.907 15.0264L25.83 16.8833C25.9552 17.1351 26.2837 17.3869 26.5809 17.4341L28.2549 17.7174C29.3187 17.8905 29.569 18.6773 28.8024 19.4485L27.5039 20.7546C27.2849 20.9749 27.1598 21.3998 27.238 21.7146L27.6134 23.3355C27.9107 24.6102 27.238 25.1137 26.1116 24.437L24.5472 23.5086C24.2656 23.3355 23.7962 23.3355 23.5147 23.5086L21.9502 24.437C20.8238 25.098 20.1511 24.6102 20.4484 23.3355L20.8238 21.7146C20.8864 21.4156 20.7769 20.9749 20.5579 20.7546L19.2594 19.4485C18.4928 18.6773 18.7432 17.9062 19.807 17.7174L21.4809 17.4341C21.7625 17.3869 22.091 17.1351 22.2162 16.8833L23.1392 15.0264C23.5929 14.0192 24.4064 14.0192 24.907 15.0264Z" stroke="#0D58AA" stroke-width="2" stroke-linecap="round" stroke-linejoin="round"/>
</svg>
