<svg width="48" height="49" viewBox="0 0 48 49" fill="none" xmlns="http://www.w3.org/2000/svg">
<path d="M46.221 9.1132C49.2471 14.8587 47.1253 23.1496 44.6906 30.1677C42.2558 37.2223 39.5427 43.0041 34.8123 45.9859C30.0819 48.9314 23.334 49.0768 16.4123 46.7132C9.49056 44.3496 2.3949 39.4768 0.690556 32.9677C-0.979009 26.4587 2.74273 18.2768 7.9949 12.0223C13.2471 5.73138 20.0297 1.29502 27.5079 0.713202C35.021 0.131384 43.1949 3.36775 46.221 9.1132Z" fill="#1C7EE8" fill-opacity="0.24"/>
<path d="M13.7676 34.7133V30.1181C13.7676 28.5916 14.9566 27.2225 16.6461 27.2225C18.1636 27.2225 19.5247 28.4185 19.5247 30.1181V34.5402C19.5247 37.6089 16.9903 40.1583 13.9397 40.1583C10.8891 40.1583 8.35469 37.5932 8.35469 34.5402V24.8462C8.18261 16.0021 15.1287 8.84174 23.9207 8.84174C32.7128 8.84174 39.6432 16.002 39.6432 24.6731V34.3671C39.6432 37.4358 37.1088 39.9852 34.0582 39.9852C31.0076 39.9852 28.4732 37.4358 28.4732 34.3671V29.945C28.4732 28.4185 29.6622 27.0494 31.3517 27.0494C32.8692 27.0494 34.2303 28.2454 34.2303 29.945V34.7133" stroke="#0D58AA" stroke-width="2" stroke-linecap="round" stroke-linejoin="round"/>
</svg>
