<svg width="26" height="27" viewBox="0 0 26 27" fill="none" xmlns="http://www.w3.org/2000/svg">
<path d="M7.55 23.9526C8.68 23.9526 9.87 23.6826 11.1 23.1626C12.3 22.6526 13.51 21.9526 14.69 21.1026C15.86 20.2426 16.99 19.2826 18.06 18.2326C19.12 17.1626 20.08 16.0326 20.93 14.8726C21.79 13.6726 22.48 12.4726 22.97 11.3126C23.49 10.0726 23.75 8.87264 23.75 7.74264C23.75 6.96264 23.61 6.22264 23.34 5.53264C23.06 4.82264 22.61 4.16264 22 3.59264C21.23 2.83264 20.35 2.45264 19.41 2.45264C19.02 2.45264 18.62 2.54264 18.28 2.70264C17.89 2.88264 17.56 3.15264 17.32 3.51264L15 6.78264C14.79 7.07264 14.63 7.35264 14.52 7.63264C14.39 7.93264 14.32 8.23264 14.32 8.52264C14.32 8.90264 14.43 9.27264 14.64 9.62264C14.79 9.89264 15.02 10.1826 15.31 10.4726L15.99 11.1826C15.98 11.2126 15.97 11.2326 15.96 11.2526C15.84 11.4626 15.6 11.8226 15.14 12.3626C14.65 12.9226 14.19 13.4326 13.73 13.9026C13.14 14.4826 12.65 14.9426 12.19 15.3226C11.62 15.8026 11.25 16.0426 11.03 16.1526L11.05 16.2026L10.32 15.4826C10.01 15.1726 9.71 14.9426 9.42 14.7926C8.87 14.4526 8.17 14.3926 7.47 14.6826C7.21 14.7926 6.93 14.9426 6.63 15.1526L3.31 17.5126C2.94 17.7626 2.67 18.0826 2.51 18.4626C2.36 18.8426 2.29 19.1926 2.29 19.5426C2.29 20.0226 2.4 20.5026 2.61 20.9526C2.82 21.4026 3.08 21.7926 3.41 22.1526C3.98 22.7826 4.6 23.2326 5.32 23.5226C6.01 23.8026 6.76 23.9526 7.55 23.9526ZM19.41 3.95264C19.96 3.95264 20.47 4.19264 20.96 4.67264C21.42 5.10264 21.74 5.57264 21.94 6.08264C22.15 6.60264 22.25 7.15264 22.25 7.74264C22.25 8.67264 22.03 9.68264 21.59 10.7226C21.14 11.7826 20.51 12.8826 19.71 13.9826C18.91 15.0826 18 16.1526 17 17.1626C16 18.1526 14.92 19.0726 13.81 19.8826C12.73 20.6726 11.62 21.3126 10.52 21.7726C8.81 22.5026 7.21 22.6726 5.89 22.1226C5.38 21.9126 4.93 21.5926 4.52 21.1326C4.29 20.8826 4.11 20.6126 3.96 20.2926C3.84 20.0426 3.78 19.7826 3.78 19.5226C3.78 19.3626 3.81 19.2026 3.89 19.0226C3.92 18.9626 3.98 18.8526 4.17 18.7226L7.49 16.3626C7.69 16.2226 7.87 16.1226 8.04 16.0526C8.26 15.9626 8.35 15.8726 8.69 16.0826C8.89 16.1826 9.07 16.3326 9.27 16.5326L10.03 17.2826C10.42 17.6626 11.02 17.7526 11.48 17.5826L11.75 17.4626C12.16 17.2426 12.64 16.9026 13.17 16.4526C13.65 16.0426 14.17 15.5626 14.8 14.9426C15.29 14.4426 15.78 13.9126 16.29 13.3226C16.76 12.7726 17.1 12.3026 17.31 11.9126L17.43 11.6126C17.49 11.3826 17.51 11.2526 17.51 11.1126C17.51 10.7526 17.38 10.4326 17.13 10.1826L16.38 9.40264C16.18 9.20264 16.03 9.01264 15.93 8.84264C15.85 8.71264 15.82 8.60264 15.82 8.50264C15.82 8.42264 15.85 8.30264 15.9 8.18264C15.97 8.02264 16.08 7.84264 16.22 7.65264L18.54 4.37264C18.64 4.23264 18.76 4.13264 18.91 4.06264C19.07 3.99264 19.24 3.95264 19.41 3.95264ZM11.05 16.2126L11.21 16.8926L10.94 16.1926C10.99 16.1826 11.03 16.1926 11.05 16.2126Z" fill="#03283F"/>
<path d="M6.5 10.9526C6.91 10.9526 7.25 10.6126 7.25 10.2026C7.25 9.84264 7.61 9.09264 8.21 8.45264C8.8 7.82264 9.45 7.45264 10 7.45264C10.41 7.45264 10.75 7.11264 10.75 6.70264C10.75 6.29264 10.41 5.95264 10 5.95264C9.03 5.95264 8.01 6.47264 7.12 7.42264C6.29 8.31264 5.75 9.40264 5.75 10.2026C5.75 10.6126 6.09 10.9526 6.5 10.9526Z" fill="#03283F"/>
<path d="M3 10.9526C3.41 10.9526 3.75 10.6126 3.75 10.2026C3.75 6.75264 6.55 3.95264 10 3.95264C10.41 3.95264 10.75 3.61264 10.75 3.20264C10.75 2.79264 10.41 2.45264 10 2.45264C5.73 2.45264 2.25 5.93264 2.25 10.2026C2.25 10.6126 2.59 10.9526 3 10.9526Z" fill="#03283F"/>
</svg>
