<svg width="24" height="25" viewBox="0 0 24 25" fill="none" xmlns="http://www.w3.org/2000/svg">
<path d="M17.45 23.25C16.32 23.25 15.13 22.98 13.9 22.46C12.7 21.95 11.49 21.25 10.31 20.4C9.14 19.54 8.01 18.58 6.94 17.53C5.88 16.46 4.92 15.33 4.07 14.17C3.21 12.97 2.52 11.77 2.03 10.61C1.51 9.36997 1.25 8.16997 1.25 7.03997C1.25 6.25997 1.39 5.51997 1.66 4.82997C1.94 4.11997 2.39 3.45997 3 2.88997C3.77 2.12997 4.65 1.74997 5.59 1.74997C5.98 1.74997 6.38 1.83997 6.72 1.99997C7.11 2.17997 7.44 2.44997 7.68 2.80997L10 6.07997C10.21 6.36997 10.37 6.64997 10.48 6.92997C10.61 7.22997 10.68 7.52997 10.68 7.81997C10.68 8.19997 10.57 8.56997 10.36 8.91997C10.21 9.18997 9.98 9.47997 9.69 9.76997L9.01 10.48C9.02 10.51 9.03 10.53 9.04 10.55C9.16 10.76 9.4 11.12 9.86 11.66C10.35 12.22 10.81 12.73 11.27 13.2C11.86 13.78 12.35 14.24 12.81 14.62C13.38 15.1 13.75 15.34 13.97 15.45L13.95 15.5L14.68 14.78C14.99 14.47 15.29 14.24 15.58 14.09C16.13 13.75 16.83 13.69 17.53 13.98C17.79 14.09 18.07 14.24 18.37 14.45L21.69 16.81C22.06 17.06 22.33 17.38 22.49 17.76C22.64 18.14 22.71 18.49 22.71 18.84C22.71 19.32 22.6 19.8 22.39 20.25C22.18 20.7 21.92 21.09 21.59 21.45C21.02 22.08 20.4 22.53 19.68 22.82C18.99 23.1 18.24 23.25 17.45 23.25ZM5.59 3.24997C5.04 3.24997 4.53 3.48997 4.04 3.96997C3.58 4.39997 3.26 4.86997 3.06 5.37997C2.85 5.89997 2.75 6.44997 2.75 7.03997C2.75 7.96997 2.97 8.97997 3.41 10.02C3.86 11.08 4.49 12.18 5.29 13.28C6.09 14.38 7 15.45 8 16.46C9 17.45 10.08 18.37 11.19 19.18C12.27 19.97 13.38 20.61 14.48 21.07C16.19 21.8 17.79 21.97 19.11 21.42C19.62 21.21 20.07 20.89 20.48 20.43C20.71 20.18 20.89 19.91 21.04 19.59C21.16 19.34 21.22 19.08 21.22 18.82C21.22 18.66 21.19 18.5 21.11 18.32C21.08 18.26 21.02 18.15 20.83 18.02L17.51 15.66C17.31 15.52 17.13 15.42 16.96 15.35C16.74 15.26 16.65 15.17 16.31 15.38C16.11 15.48 15.93 15.63 15.73 15.83L14.97 16.58C14.58 16.96 13.98 17.05 13.52 16.88L13.25 16.76C12.84 16.54 12.36 16.2 11.83 15.75C11.35 15.34 10.83 14.86 10.2 14.24C9.71 13.74 9.22 13.21 8.71 12.62C8.24 12.07 7.9 11.6 7.69 11.21L7.57 10.91C7.51 10.68 7.49 10.55 7.49 10.41C7.49 10.05 7.62 9.72997 7.87 9.47997L8.62 8.69997C8.82 8.49997 8.97 8.30997 9.07 8.13997C9.15 8.00997 9.18 7.89997 9.18 7.79997C9.18 7.71997 9.15 7.59997 9.1 7.47997C9.03 7.31997 8.92 7.13997 8.78 6.94997L6.46 3.66997C6.36 3.52997 6.24 3.42997 6.09 3.35997C5.93 3.28997 5.76 3.24997 5.59 3.24997ZM13.95 15.51L13.79 16.19L14.06 15.49C14.01 15.48 13.97 15.49 13.95 15.51Z" fill="#03283F"/>
<path d="M18.5 10.25C18.09 10.25 17.75 9.90997 17.75 9.49997C17.75 9.13997 17.39 8.38997 16.79 7.74997C16.2 7.11997 15.55 6.74997 15 6.74997C14.59 6.74997 14.25 6.40997 14.25 5.99997C14.25 5.58997 14.59 5.24997 15 5.24997C15.97 5.24997 16.99 5.76997 17.88 6.71997C18.71 7.60997 19.25 8.69997 19.25 9.49997C19.25 9.90997 18.91 10.25 18.5 10.25Z" fill="#03283F"/>
<path d="M22 10.25C21.59 10.25 21.25 9.90997 21.25 9.49997C21.25 6.04997 18.45 3.24997 15 3.24997C14.59 3.24997 14.25 2.90997 14.25 2.49997C14.25 2.08997 14.59 1.74997 15 1.74997C19.27 1.74997 22.75 5.22997 22.75 9.49997C22.75 9.90997 22.41 10.25 22 10.25Z" fill="#03283F"/>
</svg>
