<svg width="22" height="22" viewBox="0 0 22 22" fill="none" xmlns="http://www.w3.org/2000/svg">
<path d="M21.1372 3.89363C22.5298 6.5357 21.5534 10.3483 20.433 13.5757C19.3126 16.8197 18.0641 19.4785 15.8873 20.8497C13.7106 22.2042 10.6054 22.2711 7.42028 21.1842C4.23512 20.0972 0.969937 17.8565 0.185653 14.8633C-0.582626 11.87 1.12999 8.10757 3.54687 5.23139C5.96375 2.33848 9.08488 0.298401 12.5261 0.030849C15.9834 -0.236703 19.7447 1.25155 21.1372 3.89363Z" fill="#1C7EE8" fill-opacity="0.12"/>
<path d="M10.9987 17.6667C14.6654 17.6667 17.6654 14.6667 17.6654 11C17.6654 7.33333 14.6654 4.33333 10.9987 4.33333C7.33203 4.33333 4.33203 7.33333 4.33203 11C4.33203 14.6667 7.33203 17.6667 10.9987 17.6667Z" stroke="#1C7EE8" stroke-linecap="round" stroke-linejoin="round"/>
<path d="M9.11328 12.8867L12.8866 9.11336" stroke="#1C7EE8" stroke-linecap="round" stroke-linejoin="round"/>
<path d="M12.8866 12.8867L9.11328 9.11336" stroke="#1C7EE8" stroke-linecap="round" stroke-linejoin="round"/>
</svg>
