<svg width="24" height="25" viewBox="0 0 24 25" fill="none" xmlns="http://www.w3.org/2000/svg">
<path d="M17 21.4526H7C3.35 21.4526 1.25 19.3526 1.25 15.7026V8.70264C1.25 5.05264 3.35 2.95264 7 2.95264H17C20.65 2.95264 22.75 5.05264 22.75 8.70264V15.7026C22.75 19.3526 20.65 21.4526 17 21.4526ZM7 4.45264C4.14 4.45264 2.75 5.84264 2.75 8.70264V15.7026C2.75 18.5626 4.14 19.9526 7 19.9526H17C19.86 19.9526 21.25 18.5626 21.25 15.7026V8.70264C21.25 5.84264 19.86 4.45264 17 4.45264H7Z" fill="#03283F"/>
<path d="M11.9988 13.0726C11.1588 13.0726 10.3088 12.8126 9.6588 12.2826L6.5288 9.78261C6.2088 9.52261 6.14881 9.05261 6.4088 8.73261C6.66881 8.41261 7.13881 8.35261 7.45881 8.61261L10.5888 11.1126C11.3488 11.7226 12.6388 11.7226 13.3988 11.1126L16.5288 8.61261C16.8488 8.35261 17.3288 8.40261 17.5788 8.73261C17.8388 9.05261 17.7888 9.53261 17.4588 9.78261L14.3288 12.2826C13.6888 12.8126 12.8388 13.0726 11.9988 13.0726Z" fill="#03283F"/>
</svg>
