<svg width="42" height="42" viewBox="0 0 26 27" fill="none" xmlns="http://www.w3.org/2000/svg">
<rect y="0.702637" width="26" height="26" rx="13" fill="#F5F5F5"/>
<path d="M16.334 7.03613H9.66732C7.82637 7.03613 6.33398 8.52852 6.33398 10.3695V17.0361C6.33398 18.8771 7.82637 20.3695 9.66732 20.3695H16.334C18.1749 20.3695 19.6673 18.8771 19.6673 17.0361V10.3695C19.6673 8.52852 18.1749 7.03613 16.334 7.03613Z" fill="#1C7EE8" stroke="#1C7EE8" stroke-width="0.5" stroke-linecap="round" stroke-linejoin="round"/>
<path d="M15.6658 13.2828C15.7481 13.8377 15.6533 14.4043 15.395 14.9022C15.1367 15.4 14.7279 15.8038 14.2269 16.056C13.7259 16.3081 13.1581 16.3959 12.6043 16.3068C12.0506 16.2177 11.539 15.9562 11.1424 15.5596C10.7458 15.163 10.4843 14.6514 10.3952 14.0976C10.3061 13.5439 10.3939 12.9761 10.646 12.4751C10.8982 11.9741 11.3019 11.5653 11.7998 11.307C12.2977 11.0487 12.8643 10.9539 13.4192 11.0362C13.9851 11.1201 14.5091 11.3838 14.9136 11.7884C15.3182 12.1929 15.5819 12.7169 15.6658 13.2828Z" stroke="white" stroke-linecap="round" stroke-linejoin="round"/>
<path d="M16.666 10.0361H16.6727" stroke="white" stroke-linecap="round" stroke-linejoin="round"/>
</svg>
