<svg width="26" height="27" viewBox="0 0 26 27" fill="none" xmlns="http://www.w3.org/2000/svg">
<path d="M10.368 20.8883C10.1622 20.8883 9.95638 20.8125 9.79388 20.65L3.21805 14.0742C2.90388 13.76 2.90388 13.24 3.21805 12.9258L9.79388 6.35C10.108 6.03584 10.628 6.03584 10.9422 6.35C11.2564 6.66417 11.2564 7.18417 10.9422 7.49834L4.94055 13.5L10.9422 19.5017C11.2564 19.8158 11.2564 20.3358 10.9422 20.65C10.7905 20.8125 10.5739 20.8883 10.368 20.8883Z" fill="#1C7EE8"/>
<path d="M22.2091 14.3125H3.97656C3.5324 14.3125 3.16406 13.9442 3.16406 13.5C3.16406 13.0558 3.5324 12.6875 3.97656 12.6875H22.2091C22.6532 12.6875 23.0216 13.0558 23.0216 13.5C23.0216 13.9442 22.6532 14.3125 22.2091 14.3125Z" fill="#1C7EE8"/>
</svg>
