<svg width="16" height="16" viewBox="0 0 16 16" fill="none" xmlns="http://www.w3.org/2000/svg">
<mask id="path-1-inside-1_119_26825" fill="white">
<path d="M10.0603 13.7798C10.1869 13.7798 10.3136 13.7331 10.4136 13.6331C10.6069 13.4398 10.6069 13.1198 10.4136 12.9264L6.06693 8.57977C5.74693 8.25977 5.74693 7.73977 6.06693 7.41977L10.4136 3.0731C10.6069 2.87977 10.6069 2.55977 10.4136 2.36644C10.2203 2.1731 9.90026 2.1731 9.70693 2.36644L5.36026 6.7131C5.02026 7.0531 4.82693 7.5131 4.82693 7.99977C4.82693 8.48644 5.01359 8.94644 5.36026 9.28644L9.70693 13.6331C9.80693 13.7264 9.93359 13.7798 10.0603 13.7798Z"/>
</mask>
<path d="M10.0603 13.7798C10.1869 13.7798 10.3136 13.7331 10.4136 13.6331C10.6069 13.4398 10.6069 13.1198 10.4136 12.9264L6.06693 8.57977C5.74693 8.25977 5.74693 7.73977 6.06693 7.41977L10.4136 3.0731C10.6069 2.87977 10.6069 2.55977 10.4136 2.36644C10.2203 2.1731 9.90026 2.1731 9.70693 2.36644L5.36026 6.7131C5.02026 7.0531 4.82693 7.5131 4.82693 7.99977C4.82693 8.48644 5.01359 8.94644 5.36026 9.28644L9.70693 13.6331C9.80693 13.7264 9.93359 13.7798 10.0603 13.7798Z" fill="#1C7EE8"/>
<path d="M10.4136 12.9264L14.6562 8.68379V8.68379L10.4136 12.9264ZM6.06693 8.57977L1.82429 12.8224V12.8224L6.06693 8.57977ZM6.06693 7.41977L10.3096 11.6624L6.06693 7.41977ZM10.4136 3.0731L6.17095 -1.16954L10.4136 3.0731ZM9.70693 2.36644L13.9496 6.60908L13.9496 6.60908L9.70693 2.36644ZM5.36026 6.7131L1.11762 2.47046V2.47046L5.36026 6.7131ZM5.36026 9.28644L9.56151 5.00281L9.58231 5.0232L9.6029 5.0438L5.36026 9.28644ZM9.70693 13.6331L5.61302 18.0194L5.53741 17.9489L5.46429 17.8757L9.70693 13.6331ZM10.0603 7.77977C8.68151 7.77977 7.25548 8.30594 6.17095 9.39046L14.6562 17.8757C13.3717 19.1603 11.6923 19.7798 10.0603 19.7798V7.77977ZM6.17095 9.39046C4.02114 11.5403 4.02114 15.0193 6.17095 17.1691L14.6562 8.68379C17.1927 11.2203 17.1927 15.3393 14.6562 17.8757L6.17095 9.39046ZM6.17095 17.1691L1.82429 12.8224L10.3096 4.33713L14.6562 8.68379L6.17095 17.1691ZM1.82429 12.8224C-0.83886 10.1593 -0.83886 5.84027 1.82429 3.17713L10.3096 11.6624C12.3327 9.63926 12.3327 6.36027 10.3096 4.33713L1.82429 12.8224ZM1.82429 3.17713L6.17095 -1.16954L14.6562 7.31574L10.3096 11.6624L1.82429 3.17713ZM6.17095 -1.16954C4.02114 0.980274 4.02114 4.45926 6.17095 6.60908L14.6562 -1.8762C17.1927 0.660274 17.1927 4.77926 14.6562 7.31574L6.17095 -1.16954ZM6.17095 6.60908C8.32077 8.75889 11.7998 8.75889 13.9496 6.60908L5.46429 -1.8762C8.00077 -4.41268 12.1198 -4.41268 14.6562 -1.8762L6.17095 6.60908ZM13.9496 6.60908L9.6029 10.9557L1.11762 2.47046L5.46429 -1.87621L13.9496 6.60908ZM9.6029 10.9557C10.3786 10.18 10.8269 9.11779 10.8269 7.99977H-1.17307C-1.17307 5.90841 -0.338094 3.92617 1.11762 2.47046L9.6029 10.9557ZM10.8269 7.99977C10.8269 6.93233 10.4057 5.83075 9.56151 5.00281L1.15901 13.5701C-0.378501 12.0621 -1.17307 10.0405 -1.17307 7.99977H10.8269ZM9.6029 5.0438L13.9496 9.39046L5.46429 17.8757L1.11762 13.5291L9.6029 5.0438ZM13.8008 9.24677C12.9143 8.41931 11.6154 7.77977 10.0603 7.77977V19.7798C8.25175 19.7798 6.69959 19.0336 5.61302 18.0194L13.8008 9.24677Z" fill="#1C7EE8" mask="url(#path-1-inside-1_119_26825)"/>
</svg>
