<svg width="42" height="42" viewBox="0 0 26 27" fill="none" xmlns="http://www.w3.org/2000/svg">
<rect y="0.702637" width="26" height="26" rx="13" fill="#F5F5F5"/>
<path d="M15.5 11.7026C16.4283 11.7026 17.3185 12.0916 17.9749 12.7841C18.6313 13.4765 19 14.4157 19 15.3949V19.7026H16.6667V15.3949C16.6667 15.0685 16.5438 14.7555 16.325 14.5247C16.1062 14.2938 15.8094 14.1642 15.5 14.1642C15.1906 14.1642 14.8938 14.2938 14.675 14.5247C14.4562 14.7555 14.3333 15.0685 14.3333 15.3949V19.7026H12V15.3949C12 14.4157 12.3687 13.4765 13.0251 12.7841C13.6815 12.0916 14.5717 11.7026 15.5 11.7026Z" fill="#1C7EE8" stroke="#1C7EE8" stroke-width="0.5" stroke-linecap="round" stroke-linejoin="round"/>
<path d="M9 11.7026H7V19.7026H9V11.7026Z" fill="#1C7EE8" stroke="#1C7EE8" stroke-width="0.5" stroke-linecap="round" stroke-linejoin="round"/>
<path d="M8 9.70264C8.55228 9.70264 9 9.25492 9 8.70264C9 8.15035 8.55228 7.70264 8 7.70264C7.44772 7.70264 7 8.15035 7 8.70264C7 9.25492 7.44772 9.70264 8 9.70264Z" fill="#1C7EE8" stroke="#1C7EE8" stroke-width="0.5" stroke-linecap="round" stroke-linejoin="round"/>
</svg>
