<svg width="50" height="48" viewBox="0 0 50 48" fill="none" xmlns="http://www.w3.org/2000/svg">
<g clip-path="url(#clip0_119_26854)">
<path d="M41.0221 10.7544C45.2422 15.7367 48.0127 21.0037 48.0771 26.4113C48.1093 31.8493 43.9261 38.8962 39.706 42.7544C35.4536 46.6126 31.1321 47.3126 24.7536 47.8594C18.3428 48.4366 12.2635 44.6126 7.75342 40.7544C3.24334 36.8658 1.85935 32.3164 1.92378 25.7544C1.98821 19.1924 2.55768 13.7062 7.03554 8.75434C11.5456 3.77206 18.4395 -0.019061 24.7536 0.558154C31.0355 1.10499 36.7697 5.80249 41.0221 10.7544Z" fill="#E0E0E0"/>
<path d="M24.9999 29.1482V28.3646C24.9999 25.8269 26.523 24.4834 28.046 23.4011C29.5328 22.3562 31.0193 21.0127 31.0193 18.5496C31.0193 15.1162 28.336 12.3545 24.9999 12.3545C21.6638 12.3545 18.9805 15.1162 18.9805 18.5496" stroke="#03283F" stroke-opacity="0.94" stroke-width="1.5" stroke-linecap="round" stroke-linejoin="round"/>
<path d="M24.4835 34.5814H24.5106" stroke="#03283F" stroke-opacity="0.94" stroke-width="1.5" stroke-linecap="round" stroke-linejoin="round"/>
</g>
<defs>
<clipPath id="clip0_119_26854">
<rect width="48.1554" height="47.4175" fill="white" transform="translate(0.921875 0.5)"/>
</clipPath>
</defs>
</svg>
