<svg width="49" height="48" viewBox="0 0 49 48" fill="none" xmlns="http://www.w3.org/2000/svg">
<g clip-path="url(#clip0_163_302)">
<g clip-path="url(#clip1_163_302)">
<path d="M40.9448 10.2544C45.1649 15.2367 47.9354 20.5037 47.9998 25.9113C48.0321 31.3493 43.8488 38.3962 39.6287 42.2544C35.3763 46.1126 31.0548 46.8126 24.6763 47.3594C18.2656 47.9366 12.1862 44.1126 7.67615 40.2544C3.16607 36.3658 1.78208 31.8164 1.84651 25.2544C1.91094 18.6924 2.48041 13.2062 6.95827 8.25434C11.4683 3.27206 18.3622 -0.519061 24.6763 0.0581542C30.9582 0.60499 36.6924 5.30249 40.9448 10.2544Z" fill="#E0E0E0"/>
<path d="M30.6209 21.62H25.3708C24.9608 21.62 24.6208 21.28 24.6208 20.87C24.6208 20.46 24.9608 20.12 25.3708 20.12H30.6209C31.0309 20.12 31.3709 20.46 31.3709 20.87C31.3709 21.28 31.0409 21.62 30.6209 21.62Z" fill="#03283F" fill-opacity="0.94"/>
<path d="M20.1209 22.38C19.9309 22.38 19.7409 22.31 19.5909 22.16L18.8409 21.41C18.5509 21.12 18.5509 20.64 18.8409 20.35C19.1309 20.06 19.6109 20.06 19.9009 20.35L20.1209 20.57L21.8409 18.85C22.1309 18.56 22.6109 18.56 22.9009 18.85C23.1909 19.14 23.1909 19.62 22.9009 19.91L20.6509 22.16C20.5109 22.3 20.3209 22.38 20.1209 22.38Z" fill="#03283F" fill-opacity="0.94"/>
<path d="M30.6209 28.62H25.3708C24.9608 28.62 24.6208 28.28 24.6208 27.87C24.6208 27.46 24.9608 27.12 25.3708 27.12H30.6209C31.0309 27.12 31.3709 27.46 31.3709 27.87C31.3709 28.28 31.0409 28.62 30.6209 28.62Z" fill="#03283F" fill-opacity="0.94"/>
<path d="M20.1209 29.38C19.9309 29.38 19.7409 29.31 19.5909 29.16L18.8409 28.41C18.5509 28.12 18.5509 27.64 18.8409 27.35C19.1309 27.06 19.6109 27.06 19.9009 27.35L20.1209 27.57L21.8409 25.85C22.1309 25.56 22.6109 25.56 22.9009 25.85C23.1909 26.14 23.1909 26.62 22.9009 26.91L20.6509 29.16C20.5109 29.3 20.3209 29.38 20.1209 29.38Z" fill="#03283F" fill-opacity="0.94"/>
<path d="M28.0009 34.75H22.0009C16.5709 34.75 14.2509 32.43 14.2509 27V21C14.2509 15.57 16.5709 13.25 22.0009 13.25H28.0009C33.4309 13.25 35.7509 15.57 35.7509 21V27C35.7509 32.43 33.4309 34.75 28.0009 34.75ZM22.0009 14.75C17.3909 14.75 15.7509 16.39 15.7509 21V27C15.7509 31.61 17.3909 33.25 22.0009 33.25H28.0009C32.6109 33.25 34.2509 31.61 34.2509 27V21C34.2509 16.39 32.6109 14.75 28.0009 14.75H22.0009Z" fill="#03283F" fill-opacity="0.94"/>
</g>
</g>
<defs>
<clipPath id="clip0_163_302">
<rect x="0.844604" width="48.1554" height="47.4175" rx="23.7087" fill="white"/>
</clipPath>
<clipPath id="clip1_163_302">
<rect width="48.1554" height="47.4175" fill="white" transform="translate(0.844604)"/>
</clipPath>
</defs>
</svg>
